<svg xmlns="http://www.w3.org/2000/svg" viewBox="0 0 348.36 348.27"><defs><style>.cls-1{fill:#7d60f5;}.cls-2{fill:#fff;}</style></defs><title>hand_cliengo</title><g id="Capa_2" data-name="Capa 2"><g id="Capa_1-2" data-name="Capa 1"><path class="cls-1" d="M176.31,0C79.45-.9,1.62,76.4,0,170.82c-1.7,100.73,79.86,178.06,174.05,177.45,95.87.34,173-76.67,174.26-171.22C349.74,75.18,267.4.86,176.31,0Z"/><path class="cls-2" d="M299.31,157.74c-5,6.87-10.22,13.57-15.21,20.44-9.58,13.18-12.82,28.21-13.06,44.21-.7,45.88-29,80.44-73.83,90.55-29.72,6.7-56.82-6.52-69.83-34a22.72,22.72,0,0,0-2.44-4.32c-27.8-35.67-51.85-73.86-75.46-112.34-3.46-5.64-6.09-11.43-4.42-18.35,3.79-15.7,21.29-21.38,34.32-11,2.46,1.95,4.64,4.24,7,6.38l.64-.34c-4.66-11-9.6-21.85-13.91-33C67.42,91.35,77.66,76.8,92.53,78c7.89.63,13.45,5.19,17.72,11.6,6.08,9.1,12.24,18.14,18.86,26.88-4.39-17.69-8.87-35.36-13.13-53.09a24.79,24.79,0,0,1,2.45-17.91c3.51-6.55,9-10.32,16.45-10.42,8.86-.12,15.43,4.58,19.21,12.16,3.61,7.26,6,15.1,8.9,22.72,2.57,6.91,5,13.87,8.14,20.62.43-8.24.9-16.49,1.28-24.74.51-11.06,9.39-21,19.66-21.9,11.84-1,20.86,5.28,23.48,16.92a59.19,59.19,0,0,1,1.09,12.39c.21,32,.38,64,.34,96,0,3.82,1.12,5.34,4.74,6.65a58.32,58.32,0,0,1,14.55,7.44,24.86,24.86,0,0,1,8,29.52c-3.82,9.31-13.43,15.26-23,14.24-10.39-1.1-18.65-9.43-20.8-21.28-.77-4.21-1-8.51-1.57-12.94a8.86,8.86,0,0,0-2.52-.2c-27.23,6.21-47.93,23.13-54.91,50.65-5.86,23.08,8.4,47.09,31,52,13.35,2.93,26.16,0,38.19-6.16,20.37-10.39,35.4-25.41,40.2-48.61a93.87,93.87,0,0,0,2.35-21.26c-.6-24,9.24-43.88,23.64-62.09,2.37-3,4.86-5.93,7-9.07,2.77-4,1.82-6.22-2.9-7.62-6.37-1.88-12.2-.05-17.71,2.89-7.65,4.08-12.6,10.69-16.32,18.35-2.49,5.14-6.29,7.39-10.57,6.43-5.39-1.2-8.78-6.49-6.68-11.94,8.42-21.92,31.2-39.14,55.84-33.36C299.09,126.07,311,141.67,299.31,157.74Z"/><path id="Path_11441" data-name="Path 11441" class="cls-1" d="M198.76,173.54c0-13.6,0-26.73,0-39.86q-.12-31.73-.36-63.47a13.54,13.54,0,0,0-.52-4.9c-.55-1.35-2.31-3.47-2.93-3.27a6.41,6.41,0,0,0-3.8,3.27,25.12,25.12,0,0,0-1,7.36c-.84,17-1.6,33.91-2.4,50.87-.24,5-.41,10-.83,14.94s-3.6,8.47-8,8.88c-4.7.44-8-1.8-9.7-6.2-.61-1.55-1.18-3.11-1.74-4.68-9-25.35-18-50.73-27.15-76-.92-2.56-2.77-4.8-4.2-7.19l-2.15.65c.23,3.31,0,6.75.76,9.92,7.79,30.92,15.77,61.78,23.65,92.67.61,2.38,1.9,5.3,1.07,7.18-1.27,2.9-3.63,6.14-6.37,7.41-4.24,2-8-.46-10.64-4.24q-23-32.67-46.11-65.28A68.66,68.66,0,0,0,91.47,96l-1.64,1a34.16,34.16,0,0,0,1.49,5.81q17.45,38.65,35,77.22c2.76,6,2.19,10.47-1.93,13.4s-8.4,2.26-13.22-2.62q-20-20.28-39.93-40.63a23.89,23.89,0,0,0-4.16-3.55c-.82-.51-2.71-.73-3-.28a4.77,4.77,0,0,0-.65,3.49,11.56,11.56,0,0,0,1.9,3.48c10.9,17.33,21.66,34.76,32.77,51.95,7.84,12.12,16.17,23.93,24.74,36.56C133.52,201.68,160.5,180.89,198.76,173.54Z"/><path id="Path_11442" data-name="Path 11442" class="cls-1" d="M225.09,208.36c3-1.57,4.37-4.71,2.24-7.56s-5.28-5-8-7.39l-1.9,1.3c.57,3.38.8,6.86,1.82,10.1C220.05,207.28,221.72,210.15,225.09,208.36Z"/></g></g></svg>