<svg xmlns="http://www.w3.org/2000/svg" viewBox="0 0 179.16 49.95"><defs><style>.cls-1{font-size:31.7px;font-family:Geomanist-Bold, Geomanist;font-weight:700;}.cls-1,.cls-2{fill:#001f60;}.cls-3{fill:#ff5100;}</style></defs><title>logo unoverso crm</title><g id="Capa_2" data-name="Capa 2"><g id="Capa_1-2" data-name="Capa 1"><text class="cls-1" transform="translate(43.24 39.87)">unoverso</text><path class="cls-2" d="M39.86,15.7a23.64,23.64,0,0,0-.24-2.45h0c0-.14-.06-.29-.08-.43,0-.3-.11-.59-.17-.87s-.14-.59-.22-.87l0-.15h0a16.38,16.38,0,0,0-.58-1.67,15.14,15.14,0,0,0-2.83-4.45l-.1-.11c-.23-.24-.46-.47-.7-.69a14.73,14.73,0,0,0-5.16-3,18.47,18.47,0,0,0-5.93-1h0a6.08,6.08,0,0,0-6.08,6.08,5.44,5.44,0,0,0,0,.57l0,.21c0,.11,0,.23,0,.34l.06.26a2.68,2.68,0,0,0,.07.27c0,.09.05.19.08.28a1.59,1.59,0,0,1,.07.2l.14.33v0a6.09,6.09,0,0,0,5.54,3.58,3.94,3.94,0,0,1,3,1.41,3.54,3.54,0,0,1,.35.51l0,.06a3.32,3.32,0,0,1,.25.54l0,.09a3.8,3.8,0,0,1,.15.58s0,.06,0,.09a4.48,4.48,0,0,1,0,.64V33.85a6.08,6.08,0,0,0,12.16,0V15.7Z"/><path class="cls-3" d="M15.19,11.07v-8h0V2.82h0a3,3,0,0,0-3-2.82A3.06,3.06,0,0,0,10,.93h0l0,0a3,3,0,0,0-.48.68L.59,14.35l-.11.14,0,0h0A3,3,0,0,0,0,16.13a2.5,2.5,0,0,0,.05.47,3,3,0,0,0,3,2.57V33.85H3a6.08,6.08,0,0,0,6.08,6.08h0a6.08,6.08,0,0,0,6.08-6.08V21.25h0V11.07Z"/></g></g></svg>