<?xml version="1.0" standalone="no"?>
<!DOCTYPE svg PUBLIC "-//W3C//DTD SVG 20010904//EN"
 "http://www.w3.org/TR/2001/REC-SVG-20010904/DTD/svg10.dtd">
<svg version="1.0" xmlns="http://www.w3.org/2000/svg"
 width="260.000000pt" height="260.000000pt" viewBox="0 0 260.000000 260.000000"
 preserveAspectRatio="xMidYMid meet">
<metadata>
Created by potrace 1.11, written by Peter Selinger 2001-2013
</metadata>
<g transform="translate(0.000000,260.000000) scale(0.100000,-0.100000)"
fill="#000000" stroke="none">
<path d="M878 2423 c-45 -60 -90 -117 -100 -128 -9 -11 -94 -119 -188 -240
-95 -121 -200 -256 -235 -300 -92 -117 -256 -327 -285 -365 -14 -18 -33 -42
-43 -54 -25 -28 -10 -30 60 -10 32 10 63 19 68 20 6 1 53 13 105 28 52 14 99
26 103 26 4 0 8 -48 7 -107 -1 -60 -1 -361 -1 -670 l1 -563 298 0 299 0 2
1235 c1 679 0 1235 -3 1235 -2 0 -42 -48 -88 -107z"/>
<path d="M1588 2515 c-2 -2 -28 -5 -58 -8 -30 -3 -87 -13 -126 -22 l-72 -17 0
-240 0 -239 47 6 c129 17 265 -1 360 -48 130 -65 229 -217 245 -377 3 -25 5
-375 5 -777 l1 -733 305 0 305 0 -1 793 c-1 435 -5 819 -10 852 -76 496 -410
789 -921 809 -43 2 -79 2 -80 1z"/>
</g>
</svg>
